<svg width="16" height="12" viewBox="0 0 16 12" fill="none" xmlns="http://www.w3.org/2000/svg">
<path d="M11.3127 9.28468C11.4823 9.44182 11.6822 9.56285 11.9 9.64044C12.1179 9.71802 12.3492 9.75054 12.58 9.73602C12.9458 9.74531 13.3044 9.63403 13.6007 9.41935C13.842 9.26268 14.0247 9.03002 14.12 8.75935H15.8433C15.6597 9.53117 15.2116 10.2143 14.5767 10.69C13.9672 11.0945 13.2471 11.2995 12.516 11.2767C11.9942 11.2835 11.4764 11.1853 10.9933 10.988C10.5562 10.8059 10.1641 10.5303 9.84467 10.1807C9.52655 9.81442 9.28208 9.39023 9.12467 8.93135C8.9482 8.41827 8.86182 7.87854 8.86933 7.33602C8.866 6.80268 8.95533 6.27268 9.13333 5.77002C9.37341 5.06318 9.83067 4.45027 10.4398 4.01879C11.049 3.5873 11.7789 3.3593 12.5253 3.36735C13.0766 3.35591 13.6218 3.48509 14.1093 3.74268C14.55 3.98402 14.93 4.32268 15.2213 4.73268C15.519 5.16265 15.7323 5.64518 15.85 6.15468C15.9793 6.70202 16.0253 7.26535 15.9867 7.82668H10.854C10.812 8.35335 10.9767 8.87602 11.3127 9.28468ZM4.63133 0.722683C5.06353 0.714856 5.49509 0.759175 5.91667 0.854683C6.2718 0.932055 6.60892 1.07641 6.91 1.28002C7.18867 1.48202 7.40867 1.75402 7.54867 2.06802C7.70933 2.45402 7.78667 2.87002 7.776 3.28802C7.79461 3.74749 7.67727 4.20224 7.43867 4.59535C7.1881 4.96643 6.84189 5.26289 6.43667 5.45335C6.98683 5.60155 7.46603 5.94126 7.788 6.41135C8.09733 6.90935 8.25267 7.48802 8.23467 8.07402C8.24526 8.54117 8.1488 9.00456 7.95267 9.42868C7.77163 9.79912 7.50604 10.1218 7.17733 10.3707C6.8395 10.6173 6.45917 10.7997 6.05533 10.9087C5.63678 11.0246 5.20432 11.0827 4.77 11.0814H0V0.722683H4.63133ZM4.47467 9.32268C4.68 9.32535 4.88533 9.30335 5.08533 9.25668C5.26822 9.21649 5.44163 9.14134 5.596 9.03535C5.748 8.93002 5.87 8.78802 5.952 8.62268C6.04667 8.41135 6.09067 8.18068 6.07933 7.95002C6.09996 7.73942 6.07211 7.52689 5.99793 7.32872C5.92374 7.13054 5.80518 6.95197 5.65133 6.80668C5.32495 6.56663 4.92521 6.4476 4.52067 6.47002H2.16067V9.32268H4.47467ZM13.5647 5.34468C13.4211 5.20104 13.2483 5.08987 13.0581 5.01869C12.8679 4.9475 12.6646 4.91794 12.462 4.93202C12.193 4.92159 11.9258 4.98108 11.6867 5.10468C11.4972 5.20887 11.33 5.34932 11.1947 5.51802C11.0741 5.67578 10.9845 5.85493 10.9307 6.04602C10.8813 6.20535 10.8507 6.36935 10.8393 6.53535H14.0187C13.9908 6.1022 13.8331 5.68751 13.566 5.34535L13.5647 5.34468ZM4.356 4.91268C4.69578 4.92658 5.03022 4.82481 5.30467 4.62402C5.57067 4.38735 5.70933 4.03735 5.678 3.68202C5.68664 3.47737 5.64594 3.27364 5.55933 3.08802C5.48545 2.94054 5.37095 2.81726 5.22933 2.73268C5.08571 2.63958 4.92429 2.57737 4.75533 2.55002C4.57202 2.51418 4.38542 2.49786 4.19867 2.50135H2.16067V4.92202H4.356V4.91268ZM14.4133 1.41468H10.4293V2.43268H14.4133V1.41468Z" fill="#22262F"/>
</svg>
