<svg width="13" height="13" viewBox="0 0 13 13" fill="none" xmlns="http://www.w3.org/2000/svg">
<path d="M2.32195 3.79795C3.12755 3.79795 3.78061 3.14488 3.78061 2.33928C3.78061 1.53368 3.12755 0.880615 2.32195 0.880615C1.51635 0.880615 0.863281 1.53368 0.863281 2.33928C0.863281 3.14488 1.51635 3.79795 2.32195 3.79795Z" fill="#22262F"/>
<path d="M5.15795 4.90328V12.9959H7.67061V8.99395C7.67061 7.93795 7.86928 6.91528 9.17861 6.91528C10.4699 6.91528 10.4859 8.12262 10.4859 9.06062V12.9966H12.9999V8.55862C12.9999 6.37862 12.5306 4.70328 9.98262 4.70328C8.75928 4.70328 7.93928 5.37462 7.60395 6.00995H7.56995V4.90328H5.15795ZM1.06328 4.90328H3.57995V12.9959H1.06328V4.90328Z" fill="#22262F"/>
</svg>
